<svg xmlns="http://www.w3.org/2000/svg" viewBox="0 0 512 512"><path d="M488 121c-6-17-16-33-28-46-26-27-59-41-95-41-24 0-48 7-69 20-16 11-29 24-40 40-11-16-24-29-40-40-21-13-45-20-69-20-36 0-69 14-95 41-12 13-21 29-28 46s-10 35-10 53c0 16 3 34 7 48 6 16 14 31 25 44 4 6 9 11 14 15l176 189c5 5 13 8 20 8 8 0 16-3 21-8l183-196h4v-1s3 0 0 0c13-14 24-32 30-50 5-15 8-32 8-49 0-19-4-36-10-53zm-25 53c0 13-3 27-6 37-5 15-13 28-23 39L256 440 85 257l-1-1v-1c-4-3-8-7-11-11-8-10-14-21-18-33-4-11-6-25-6-37 0-28 11-55 29-75 19-19 43-30 69-30 38 0 73 24 89 61 4 9 11 14 20 14s16-5 20-14c16-37 51-61 89-61 26 0 51 11 69 30 18 20 29 47 29 75z"/></svg>