<svg
  xmlns="http://www.w3.org/2000/svg"
  height="983.39838"
  width="983.39838"
  id="Layer_1"
  viewBox="0 0 983.39838 983.39838"
  version="1.1">
  <defs>
    <clipPath id="clipPath">
      <path
        d="m 489.46683,282.57519 v 206.89259 h -206.8926 v 45.06445 h 206.8926 v 206.89258 h 45.06441 V 534.53223 H 741.42577 V 489.46778 H 534.53124 V 282.57519 Z"
        style="opacity:1;fill:black;fill-opacity:1;stroke:none;stroke-width:37.79527664;stroke-linecap:round;stroke-linejoin:miter;stroke-miterlimit:4;stroke-dasharray:none;stroke-opacity:1" />
    </clipPath>
  </defs>
  <g
    transform="translate(-20.300801,-20.300798)"
    id="g4728">
    <path
      id="path5249"
      d="m 512,20.300798 c -130.40675,0 -255.47239,51.8039 -347.68388,144.015402 C 72.104621,256.5277 20.300761,381.5933 20.300801,512 c -2e-5,130.4068 51.80384,255.4724 144.015339,347.6839 92.21149,92.2115 217.27712,144.0153 347.68386,144.0153 130.40674,0 255.47237,-51.8038 347.68386,-144.0153 C 951.89536,767.4724 1003.6992,642.4068 1003.6992,512 1003.6992,381.5933 951.89538,256.5277 859.68388,164.3162 767.47239,72.104698 642.40675,20.300798 512,20.300798 Z M 67.449201,512 c -44.665,340.5016 -22.3325,170.2508 0,0 z"
      style="opacity:1;fill:#5c5c5c;fill-opacity:1;stroke:none;stroke-width:37.79527664;stroke-linecap:round;stroke-linejoin:miter;stroke-miterlimit:4;stroke-dasharray:none;stroke-opacity:1" />
    <path
      id="rect5259"
      d="m 489.46683,282.57519 v 206.89259 h -206.8926 v 45.06445 h 206.8926 v 206.89258 h 45.06441 V 534.53223 H 741.42577 V 489.46778 H 534.53124 V 282.57519 Z"
      style="opacity:1;fill:#e5e5e5;fill-opacity:1;stroke:none;stroke-width:37.79527664;stroke-linecap:round;stroke-linejoin:miter;stroke-miterlimit:4;stroke-dasharray:none;stroke-opacity:1" />
  </g>
</svg>
