<svg id="Layer_1" data-name="Layer 1" xmlns="http://www.w3.org/2000/svg" viewBox="0 0 480 139.12"><title>logo for board</title><circle cx="298.43" cy="13.51" r="8.01"/><rect x="292.66" y="30.98" width="11.54" height="68.76"/><polygon points="346.68 56.14 346.68 56.3 326.32 30.98 311.42 30.98 339.3 65.28 311.42 99.74 326.32 99.74 346.68 74.42 367.19 99.74 382.1 99.74 358.54 70.89 346.68 56.14"/><path d="M416.56,29.54A35.9,35.9,0,1,0,449.26,80l.32-.81L439,74.58l-.32.8a24.2,24.2,0,0,1-46.32-9h60.1v-.8A35.88,35.88,0,0,0,416.56,29.54Zm-21.48,25a24.54,24.54,0,0,1,21.64-13.46,24.25,24.25,0,0,1,21.64,13.46Z"/><rect x="463.04" y="10.14" width="11.54" height="89.6"/><path d="M112,65h0a35.91,35.91,0,1,0-35.91,36.22,35.49,35.49,0,0,0,24.21-9.45h0v7.69a.34.34,0,0,0,.32.32h10.73a.35.35,0,0,0,.33-.32ZM76.12,89.48a24.2,24.2,0,1,1,24.21-24.2A24.28,24.28,0,0,1,76.12,89.48Z"/><path d="M42.62,42.84V31.62l-.48-.16c-9.61-3.69-19.23-1-24.52,6.25V30.82H6.08V99.58H17.62V61.91c0-8.33,2.57-14.74,7.37-18.11,4.33-3,9.94-3.52,16.51-1.28Z"/><path d="M200.82,31l-17,42.47s-2.24,5.13-4.17,0L164.92,34.67l-.16-.48h-6.09L143.76,73.45c-1.92,5.13-4.17,0-4.17,0l-16.83-42L122.6,31H109.94l26.29,64.75a1.24,1.24,0,0,0,.16.48,5.91,5.91,0,0,0,5.29,3.69c4.17,0,5.45-2.24,6.41-4.81l13.78-38L176,96.21c1,2.09,2.56,3.69,6.09,3.69a5.58,5.58,0,0,0,5.13-3.37L214.12,31Z"/><polygon points="377.61 47.81 377.61 36.43 377.61 31.78 366.39 31.78 361.58 31.78 361.58 37.71 361.58 47.81 368.31 47.81 377.61 47.81"/><path d="M247.46,29.54a36,36,0,0,0-35.9,35.58h0v69.4a.34.34,0,0,0,.32.32h10.74a.34.34,0,0,0,.32-.32V91.73h0a36.23,36.23,0,0,0,24.2,9.45,35.85,35.85,0,0,0,35.91-35.9A35.44,35.44,0,0,0,247.46,29.54Zm0,59.94a24.2,24.2,0,1,1,24.21-24.2A24.28,24.28,0,0,1,247.46,89.48Z"/></svg>