<svg xmlns="http://www.w3.org/2000/svg" viewBox="0 0 68 68"
     x="0px" y="0px">
  <path
    d="M34,56c-7.76,0-17-3.47-17-20C17,21.44,32.58,3.12,33.24,2.35a1,1,0,0,1,1.52,0C35.42,3.12,51,21.44,51,36,51,52.53,41.76,56,34,56ZM34,4.57C30.85,8.47,19,24,19,36s5,18,15,18,15-6.06,15-18S37.15,8.47,34,4.57Z"/>
  <path d="M34,66a1,1,0,0,1-1-1V55a1,1,0,0,1,2,0V65A1,1,0,0,1,34,66Z"/>
  <path d="M34,56a1,1,0,0,1-1-1V13.75a1,1,0,0,1,2,0V55A1,1,0,0,1,34,56Z"/>
  <path
    d="M34,52a1,1,0,0,1-.71-1.71l10-10a1,1,0,0,1,1.41,1.41l-10,10A1,1,0,0,1,34,52Z"/>
  <path
    d="M34,52a1,1,0,0,1-.71-.29l-10-10a1,1,0,0,1,1.41-1.41l10,10A1,1,0,0,1,34,52Z"/>
  <path
    d="M34,44a1,1,0,0,1-.71-1.71l10-10a1,1,0,0,1,1.41,1.41l-10,10A1,1,0,0,1,34,44Z"/>
  <path
    d="M34,44a1,1,0,0,1-.71-.29l-10-10a1,1,0,0,1,1.41-1.41l10,10A1,1,0,0,1,34,44Z"/>
  <path
    d="M34,34a1,1,0,0,1-.71-1.71l8-8a1,1,0,0,1,1.41,1.41l-8,8A1,1,0,0,1,34,34Z"/>
  <path
    d="M34,34a1,1,0,0,1-.71-.29l-8-8a1,1,0,0,1,1.41-1.41l8,8A1,1,0,0,1,34,34Z"/>
  <path
    d="M34,23a1,1,0,0,1-.71-1.71l4-4a1,1,0,0,1,1.41,1.41l-4,4A1,1,0,0,1,34,23Z"/>
  <path
    d="M34,23a1,1,0,0,1-.71-.29l-4-4a1,1,0,0,1,1.41-1.41l4,4A1,1,0,0,1,34,23Z"/>
</svg>
