<svg xmlns="http://www.w3.org/2000/svg" xmlns:xlink="http://www.w3.org/1999/xlink" xml:space="preserve" version="1.1" style="shape-rendering:geometricPrecision;text-rendering:geometricPrecision;image-rendering:optimizeQuality;" viewBox="0 0 333 333" x="0px" y="0px" fill-rule="evenodd" clip-rule="evenodd"><defs><style type="text/css">

    .fil0 {fill:black}

  </style></defs><g><g><path class="fil0" d="M167 66l24 14 25 14 0 29 0 28 -25 14 -24 14 -25 -14 -24 -14 0 -28 0 -29 24 -14 25 -14zm0 12l-20 11 -19 11 0 45 19 11 20 12 19 -12 20 -11 0 -45 -20 -11 -19 -11z"/><path class="fil0" d="M217 154l25 14 24 14 0 29 0 28 -24 14 -25 14 -24 -14 -25 -14 0 -28 0 -29 25 -14 24 -14zm0 12l-39 22 0 45 39 23 39 -23 0 -45 -39 -22z"/><path class="fil0" d="M116 154l25 14 24 14 0 28 0 29 -24 14 -25 14 -24 -14 -25 -14 0 -29 0 -28 25 -14 24 -14zm0 11l-39 23 0 45 39 22 39 -22 0 -45 -39 -23z"/></g></g></svg>
