<svg enable-background="new 0 0 100 100" viewBox="0 0 100 125"
     xmlns="http://www.w3.org/2000/svg">
  <path
    d="m59.168 39.187-9.168-28.22-9.168 28.219c-.331 1.018-1.273 1.703-2.343 1.703h-29.672l24.004 17.44c.866.628 1.226 1.736.895 2.755l-9.169 28.218 24.004-17.44c.433-.315.941-.472 1.449-.472s1.015.157 1.447.472l24.005 17.441-9.169-28.219c-.331-1.019.029-2.126.896-2.755l24.003-17.44h-29.67c-1.071 0-2.012-.684-2.344-1.702z"
    fill="none"/>
  <path
    d="m94.878 39.688c-.331-1.018-1.272-1.702-2.343-1.702h-30.704l-9.487-29.202s0 0 0-.001c-.332-1.018-1.273-1.701-2.344-1.701s-2.012.684-2.344 1.703l-9.488 29.201h-30.704c-1.07 0-2.012.684-2.343 1.702s.029 2.125.895 2.755l24.84 18.047-9.488 29.202c-.331 1.018.029 2.125.895 2.754s2.03.63 2.897 0l24.84-18.048 24.84 18.048c.433.314.94.472 1.448.472s1.015-.157 1.448-.472c.866-.629 1.226-1.736.896-2.754l-9.489-29.202 24.84-18.047c.867-.63 1.226-1.737.895-2.755zm-27.699 18.64c-.867.629-1.227 1.736-.896 2.755l9.169 28.219-24.004-17.441c-.433-.314-.94-.472-1.447-.472s-1.015.157-1.449.472l-24.004 17.44 9.169-28.218c.331-1.019-.029-2.126-.895-2.755l-24.005-17.439h29.671c1.071 0 2.012-.684 2.343-1.703l9.169-28.219 9.169 28.219c.331 1.018 1.273 1.702 2.343 1.702h29.671z"/>
</svg>
