<svg xmlns="http://www.w3.org/2000/svg"
     xmlns:xlink="http://www.w3.org/1999/xlink" version="1.1" x="0px" y="0px"
     viewBox="0 0 80.7 80.7" style="enable-background:new 0 0 80.7 80.7;"
     xml:space="preserve"><path d="M76.1,39.8C76.1,39.7,76.1,39.7,76.1,39.8c0-0.1,0-0.1,0-0.2c0-0.1,0-0.2,0-0.3c0,0,0,0,0,0C75.2,20,59.3,5,40.1,5  C20.3,5,4.1,21.2,4.1,41.1c0,16.7,11.3,31.1,27.6,35.1c0,0,0,0,0,0c0.1,0,0.2,0,0.3,0c0.1,0,0.1,0,0.2,0c0,0,0,0,0.1,0c0,0,0,0,0,0  c0,0,0,0,0,0c0.1,0,0.2,0,0.3-0.1c0,0,0,0,0.1,0c0.1,0,0.2-0.1,0.3-0.1c0,0,0,0,0,0c0.1-0.1,0.2-0.1,0.3-0.2c0,0,0,0,0,0  c0,0,0,0,0.1,0l42-34.9c0,0,0,0,0,0c0.2-0.2,0.4-0.4,0.5-0.7c0,0,0,0,0-0.1C76,39.9,76.1,39.9,76.1,39.8z M8.1,41.1  C8.1,23.4,22.5,9,40.1,9c16.2,0,29.7,12,31.8,27.8c-1.9-0.3-3.8-0.5-5.8-0.5c-19.6,0-35.6,15.7-36,35.2C17,67.2,8.1,55.1,8.1,41.1z   M69.5,40.5L34.2,69.9c1.3-16.5,15.1-29.6,32-29.6C67.3,40.3,68.4,40.4,69.5,40.5z"/>
     </svg>
