<svg xmlns="http://www.w3.org/2000/svg" xmlns:xlink="http://www.w3.org/1999/xlink" version="1.1" x="0px" y="0px" viewBox="0 0 100 125" enable-background="new 0 0 100 100" xml:space="preserve"><path d="M54.5,42.6c0.6,0.7,1.1,1.5,1.7,2.3c1.3,1.5,1.4,3.2,0.2,4.7c-1.2,1.6-2.7,3-4.2,4.4c-0.5,0.4-1.4,0.6-2.1,0.6  c-5.5-0.1-10-3.2-10.8-8.9c-0.2-1.6,0.2-3.5,1.1-4.9c1.5-2.6,3.6-4.7,6.8-5.5c1.9-0.5,3.7-1.1,5.7-1.1c5.2-0.2,10,2.9,11.8,7.7  c1.3,3.5,1.6,7.2,0.5,10.8c-0.6,2-1.8,4.1-3.2,5.6c-1.2,1.3-3.2,1.8-4.8,2.8c-0.7,0.4-1.6,0.9-2.1,1.6c-1.4,1.9-3.4,2.3-5.6,2.3  c-1.1,0-2.3-0.1-3.4-0.1c-7.8-0.3-14.4-3.3-18.5-9.9c-3.8-6.2-5-13.1-1.2-19.9c1.7-2.9,4.2-5.3,6.4-7.9c0.5-0.6,1.3-0.9,2.1-1.2  c4.4-1.6,8.9-2.6,13.5-2.9c3.6-0.2,7.1-0.3,10.7,0.4c4.4,0.8,8.1,2.6,11.2,5.9c3.5,3.7,6.3,7.8,8.1,12.6c2.2,6.2,1.5,12.2-1.8,17.8  c-2.7,4.5-5.9,8.7-9.6,12.5c-2.1,2.1-4.7,3.7-7.1,5.5c-0.6,0.5-1.5,0.8-2,1.3c-3.1,3.1-6.9,3.3-10.9,2.9C44,81.6,41,81,37.9,80.5  c-1.5-0.3-3-0.6-4.2-1.8c-0.6-0.6-1.5-0.9-2.4-1.2c-5.6-2.4-10-6.5-14.7-10.2c-0.1-0.1-0.2-0.2-0.3-0.4c-2.7-3.5-5.5-7.1-7-11.3  c-1.5-4.2-2-8.5-1.2-12.9c1.1-5.8,3.2-11.3,5.9-16.4c1.5-2.8,3.8-5.3,6.1-7.5c2.7-2.5,5.8-4.8,9-6.6c2.3-1.3,5.1-1.9,7.8-2.6  C44.9,7.3,53,7,61.1,7.6c2.1,0.2,4.3,0.8,6.3,1.7c3.3,1.4,6.4,3.1,9.5,4.8c1.2,0.7,2,1.9,3,2.9c5.1,5.2,9.3,11,11.9,17.9  c1,2.7,2.3,5.4,2.9,8.3c0.8,4,0.2,8.1-1.3,11.9c-1.1,2.9-1.9,5.8-3.1,8.7c-0.6,1.5-1.6,3-2.5,4.4c-0.7,1.2-1.7,2.2-2.4,3.3  c-2,3-3.7,6.1-5.8,8.9c-3.8,5-8.5,8.9-14.9,10.2c-3.4,0.7-6.8,1.5-10.2,1.8c-4.1,0.4-8.1-0.3-12-1.3c-2.1-0.5-4.3-1-6.4-1.6  c-1.2-0.3-2.3-0.8-3.4-1.2c-0.7-0.2-1.4-0.5-2.1-0.6c-5.9-1.3-11.5-3.4-16.4-7c-2.6-1.9-5.5-3.5-7.5-6.1c-2-2.5-2-4.1,0.3-6.9  c0.4,0.6,0.9,1.1,1.2,1.7c1.5,2.7,3.5,4.8,6.3,6.3c0.6,0.3,1.2,0.8,1.8,1.2c3.1,2.4,6.5,4.3,10,5.9c0.5,0.2,1,0.5,1.6,0.6  c4.7,1,9.3,2.1,14,3c2.5,0.5,5,0.6,7.5,1.1c2.5,0.5,5,0.3,7.5-0.2c4.4-0.9,8.8-1.7,12.9-3.5c4.1-1.8,7.6-4.4,10.2-8.1  c2.7-3.8,5.5-7.6,8-11.6c0.7-1.1,1-2.6,1.4-3.9c0.5-1.5,0.8-3.1,1.5-4.6c1.1-2.6,1.7-5.2,1.3-8c0-0.2,0-0.3-0.1-0.5  c-2.3-4.9-2.7-10.6-6.1-15c-2.1-2.7-4.2-5.3-6.3-8c-0.5-0.6-0.9-1.2-1.3-1.8c-1-1.4-2.2-2.5-3.9-3.3c-3-1.4-6-2.9-8.9-4.4  c-2.3-1.2-4.7-1.5-7.3-1.7c-5-0.4-9.9-0.3-14.8,0.6c-4,0.7-8,1.5-11.8,3c-2.9,1.2-5.4,3.5-8.1,5.3C20.8,23.6,19,26,17,28.2  c-0.8,0.9-1.3,2-1.9,3.1c-2,3.5-3.8,7-4.5,11c-0.2,1.6-0.1,3.2,0.1,4.8c0.8,5.3,3.8,9.6,6.9,13.8c3.8,5.1,8.8,8.5,14.5,11.1  c6.6,3,13.5,4.1,20.6,4.3c2,0.1,3.6-0.6,5.1-1.8c1.8-1.4,3.7-2.7,5.5-4c5.2-3.7,8.9-8.7,12.2-14c2-3.2,2.5-6.8,1.2-10.5  c-2-5.4-5.3-9.9-9.1-14c-1.6-1.7-3.7-2.3-5.9-2.8c-8.5-1.9-17-1.1-25.2,1.6c-2.4,0.8-4.5,2.5-6.6,4c-1.5,1.1-1.8,2.9-1.9,4.6  c-0.4,3.9,0.7,7.6,1.8,11.2c0.2,0.7,0.9,1.4,1.4,2c1.1,1.4,2.1,2.9,3.3,4.2c0.6,0.7,1.3,1.3,2.1,1.6c3.2,1.3,6.4,2.9,10,2.6  c1.1-0.1,2.3,0.1,3.4-0.1c1.3-0.2,2.7-0.5,3.9-1.2c2.2-1.3,4.5-2.7,6.5-4.3c2.4-1.9,4.7-6.9,2.7-10.8c-1.6-3.2-4.4-4.9-7.5-6.2  c-1-0.4-2-0.7-3-1c-0.5-0.1-1-0.3-1.4-0.3c-3,0.3-5.7,1.2-7.9,3.3c-1.6,1.5-1.7,4.4,0.7,7c1.3,1.4,3,2.9,5.2,3c0.9,0,1.9,0,2.8-0.4  c1.6-0.6,1.8-1.3,1.2-2.8c-0.2-0.5-0.5-1-0.8-1.5C51.5,43.7,52,42.9,54.5,42.6z"/></svg>
