<svg xmlns="http://www.w3.org/2000/svg"
     xmlns:xlink="http://www.w3.org/1999/xlink" version="1.1" x="0px" y="0px"
     viewBox="0 0 19 19" xml:space="preserve"><g transform="translate(-390 -560)"><g xmlns="http://www.w3.org/2000/svg" xmlns:xlink="http://www.w3.org/1999/xlink"><path d="M393.385,573h3.639l0.924,4H400l-3-13h-3.592l-3,13h2.053L393.385,573z M395.408,566l1.154,5h-2.717l1.154-5H395.408z"/><path
  d="M408,569v1.38c-0.733-0.839-1.799-1.38-3-1.38c-2.209,0-4,1.791-4,4s1.791,4,4,4c1.201,0,2.267-0.541,3-1.38V577h1v-8H408    z M405,575c-1.104,0-2-0.896-2-2s0.896-2,2-2c1.103,0,2,0.896,2,2S406.103,575,405,575z"/></g></g>
</svg>
