<svg xmlns="http://www.w3.org/2000/svg" xmlns:xlink="http://www.w3.org/1999/xlink" version="1.1" x="0px" y="0px" viewBox="0 0 80 87.5" style="enable-background:new 0 0 80 70;" xml:space="preserve"><g><path d="M71.6,22.7c-0.1-1-0.7-1.7-1.7-1.8c-6.8-0.7-13.7-0.7-20.6-0.6C48,15,44.7,9.5,42.3,4.9c-0.4-0.7-1.5-1-2-0.3   c-3.7,4.9-7,10-10.1,15.3C30,20,30,20.2,30,20.3c-7.5,0-14.9-0.1-22.4-0.2c-1.7,0-2.1,2.1-1.1,3.1c-0.8,10.3,0,20.5,0,30.8   c0,2.4-1.4,7.8,0.3,9.9c1.7,2.2,7.1,0.8,9.3,0.8c10-0.1,20,0.3,30.1,0.6c8.4,0.3,17.4-0.9,25.7,0.5c1.1,0.2,2.3-0.5,2.2-1.8   C73.2,50.2,72.4,36.4,71.6,22.7z M40.9,8.1c1,2.1,1.9,4.3,2.9,6.4c0.8,1.9,1.4,3.9,2.3,5.7c-3.7,0.1-7.5,0.1-11.2,0.1   c-0.8,0-1.6,0-2.4,0C35.1,16.1,37.9,12,40.9,8.1z M52.2,61.8c-8.8-0.1-17.5-0.5-26.3-0.5c-4.8,0-9.6,0.4-14.4,0.5   c-2.7,0-2.3,0.6-2.5-2.1c-0.2-2.5,0.1-5.1,0-7.6c-0.2-9.5-1-18.9-0.5-28.3c8.8,0.1,17.6,0.2,26.3,0.3c11.1,0,22.3-0.7,33.4,0.3   c0.7,12.5,1.4,25,2.1,37.6C64.4,61.2,58.2,61.9,52.2,61.8z"/><path d="M66,29.4c1-1,0.6-3.2-1.1-3.2c-17.4,0.1-34.9,0.2-52.3,0.4c-0.9,0-1.8,0.8-1.7,1.8c0.5,9.6,1,19.2,0.8,28.8   c0,1,0.8,1.7,1.7,1.7c17.6,1,35.3,0.6,53,0.1c0.7,0,1.4-0.6,1.3-1.4C67.1,48.2,66.6,38.8,66,29.4z M15,55.5   c0.2-8.4-0.2-16.9-0.6-25.3c16.5-0.1,33-0.2,49.5-0.4c0.3,8.8,0.7,17.6,1,26.4C48.3,56.4,31.6,56.5,15,55.5z"/></g></svg>
