<svg xmlns="http://www.w3.org/2000/svg" xmlns:xlink="http://www.w3.org/1999/xlink" viewBox="0 0 100 125" version="1.1" x="0px" y="0px"><title>ornament90</title><desc>Created with Sketch.</desc><g stroke="none" stroke-width="1" fill="none" fill-rule="evenodd"><g fill="#000000"><path d="M50,20.703125 C50.4953299,23.6515757 51.0130797,25.6321012 51.5532496,26.6447015 C52.3635044,28.1636021 54.3446731,28.9348314 54.3446731,32.0920873 C54.3446731,35.2493433 50.7429948,36.1003081 50.7429948,38.5577907 C50.7429948,41.0152733 53.5031624,43.5867205 52.8219445,45.9279564 C54.3446731,45.9279564 56.5690581,44.8085978 60.0803336,42.2487626 C63.5916092,39.6889275 65.449653,38.1160604 69.1982484,38.1160604 C72.9468438,38.1160604 76.1345815,40.2678245 76.1345815,45.216361 C73.9187482,42.2487626 70.9381359,42.2487626 67.7156658,43.1579438 C64.4931958,44.067125 58.2603837,51.542002 55.3836811,52.7605723 C52.5069786,53.9791425 52.2662148,53.3161666 52.2662148,54.0524133 C52.2662148,54.7886601 56.911871,54.0524133 61.2050596,57.1726367 C65.4982483,60.29286 68.0820814,63.004284 71.780629,63.004284 C75.4791766,63.004284 77.3462785,59.4551404 77.3462785,57.1726367 C77.3462785,55.6509675 76.9423795,54.0635371 76.1345815,52.4103455 C79.2907688,53.7128399 81.0471604,55.4685269 81.4037564,57.6774065 C81.7603523,59.8862861 81.0718593,62.3168319 79.3382774,64.9690438 C83.6462303,61.2357033 87.7069971,59.3977355 91.520578,59.4551404 C89.2153769,61.8212361 87.7861707,64.0904894 87.2329593,66.2629003 C90.837037,65.9413484 93.6916824,66.3758305 95.7968954,67.5663469 C97.9021084,68.7568632 99.3031433,71.1569846 100,74.7667112 C97.7976587,72.6374868 95.3284043,71.5728746 92.592237,71.5728746 C88.487986,71.5728746 81.7114338,75.7835566 76.1345815,75.7835566 C70.5577291,75.7835566 68.5516488,74.5488373 64.5932421,71.5728746 C60.6348355,68.5969119 57.4925715,61.9695585 54.7255188,60.9980103 C51.958466,60.026462 50.7429948,62.1412529 50.7429948,64.240497 C50.7429948,66.3397411 52.8219445,67.436741 52.8219445,70.315559 C52.8219445,73.1943771 51.1900581,73.7155541 50,79.296875 C48.8099419,73.7155541 47.1780555,73.1943771 47.1780555,70.315559 C47.1780555,67.436741 49.2570052,66.3397411 49.2570052,64.240497 C49.2570052,62.1412529 48.041534,60.026462 45.2744812,60.9980103 C42.5074285,61.9695585 39.3651645,68.5969119 35.4067579,71.5728746 C31.4483512,74.5488373 29.4422709,75.7835566 23.8654185,75.7835566 C18.2885662,75.7835566 11.512014,71.5728746 7.40776301,71.5728746 C4.67159568,71.5728746 2.20234135,72.6374868 0,74.7667112 C0.696856706,71.1569846 2.09789157,68.7568632 4.20310459,67.5663469 C6.30831761,66.3758305 9.162963,65.9413484 12.7670407,66.2629003 C12.2138293,64.0904894 10.7846231,61.8212361 8.47942201,59.4551404 C12.2930029,59.3977355 16.3537697,61.2357033 20.6617226,64.9690438 C18.9281407,62.3168319 18.2396477,59.8862861 18.5962436,57.6774065 C18.9528396,55.4685269 20.7092312,53.7128399 23.8654185,52.4103455 C23.0576205,54.0635371 22.6537215,55.6509675 22.6537215,57.1726367 C22.6537215,59.4551404 24.5208234,63.004284 28.219371,63.004284 C31.9179186,63.004284 34.5017517,60.29286 38.7949404,57.1726367 C43.088129,54.0524133 47.7337852,54.7886601 47.7337852,54.0524133 C47.7337852,53.3161666 47.4930214,53.9791425 44.6163189,52.7605723 C41.7396163,51.542002 35.5068042,44.067125 32.2843342,43.1579438 C29.0618641,42.2487626 26.0812518,42.2487626 23.8654185,45.216361 C23.8654185,40.2678245 27.0531562,38.1160604 30.8017516,38.1160604 C34.550347,38.1160604 36.4083908,39.6889275 39.9196664,42.2487626 C43.4309419,44.8085978 45.6553269,45.9279564 47.1780555,45.9279564 C46.4968376,43.5867205 49.2570052,41.0152733 49.2570052,38.5577907 C49.2570052,36.1003081 45.6553269,35.2493433 45.6553269,32.0920873 C45.6553269,28.9348314 47.6364956,28.1636021 48.4467504,26.6447015 C48.9869203,25.6321012 49.5046701,23.6515757 50,20.703125 Z"/></g></g></svg>
