<svg xmlns="http://www.w3.org/2000/svg"
     xmlns:xlink="http://www.w3.org/1999/xlink"
     viewBox="0 0 24 30"
     version="1.1" x="0px" y="0px">
  <title>icon-Filter</title>
  <desc>Created with Sketch Beta.</desc>
  <g stroke="none" stroke-width="1" fill="none" fill-rule="evenodd"
  >
    <g>
      <path d="M0,0 L24,0 L24,24 L0,24 L0,0 Z" opacity="0" fill="#000000"
      />
      <path
        d="M14.1707057,15 L2,15 L2,17 L14.1707057,17 C14.5825421,18.1651924 15.6937812,19 17,19 C18.3062188,19 19.4174579,18.1651924 19.8292943,17 L22,17 L22,15 L19.8292943,15 C19.4174579,13.8348076 18.3062188,13 17,13 C15.6937812,13 14.5825421,13.8348076 14.1707057,15 Z M4.17070571,6 L2,6 L2,8 L4.17070571,8 C4.58254212,9.16519237 5.69378117,10 7,10 C8.30621883,10 9.41745788,9.16519237 9.82929429,8 L22,8 L22,6 L9.82929429,6 C9.41745788,4.83480763 8.30621883,4 7,4 C5.69378117,4 4.58254212,4.83480763 4.17070571,6 Z M7,8 C7.55228475,8 8,7.55228475 8,7 C8,6.44771525 7.55228475,6 7,6 C6.44771525,6 6,6.44771525 6,7 C6,7.55228475 6.44771525,8 7,8 Z M17,17 C17.5522847,17 18,16.5522847 18,16 C18,15.4477153 17.5522847,15 17,15 C16.4477153,15 16,15.4477153 16,16 C16,16.5522847 16.4477153,17 17,17 Z"
        fill="#000000"/>
    </g>
  </g>
</svg>
