<svg xmlns="http://www.w3.org/2000/svg" data-name="Layer 1"
     viewBox="0 0 100 100" x="0px" y="0px">
  <title>130all</title>
  <path
    d="M97.67,19.48a12,12,0,0,0-12-12H14.33a12,12,0,0,0-12,12v61a12,12,0,0,0,12,12H85.67a12,12,0,0,0,12-12Zm-4,61a8,8,0,0,1-8,8H14.33a8,8,0,0,1-8-8v-61a8,8,0,0,1,8-8H85.67a8,8,0,0,1,8,8Z"/>
  <path
    d="M79.76,19.4H20.25a8,8,0,0,0-8,8v5.92a8,8,0,0,0,8,8H79.76a8,8,0,0,0,8-8V27.4A8,8,0,0,0,79.76,19.4Zm4,13.92a4,4,0,0,1-4,4H20.25a4,4,0,0,1-4-4V27.4a4,4,0,0,1,4-4H79.76a4,4,0,0,1,4,4Z"/>
  <path
    d="M39.23,46.85h-19a8,8,0,0,0-8,8V75a8,8,0,0,0,8,8h19a8,8,0,0,0,8-8V54.85A8,8,0,0,0,39.23,46.85Zm4,28.14a4,4,0,0,1-4,4h-19a4,4,0,0,1-4-4V54.85a4,4,0,0,1,4-4h19a4,4,0,0,1,4,4Z"/>
  <path
    d="M79.76,46.85h-19a8,8,0,0,0-8,8V75a8,8,0,0,0,8,8h19a8,8,0,0,0,8-8V54.85A8,8,0,0,0,79.76,46.85Zm4,28.14a4,4,0,0,1-4,4h-19a4,4,0,0,1-4-4V54.85a4,4,0,0,1,4-4h19a4,4,0,0,1,4,4Z"/>
</svg>
