<svg xmlns="http://www.w3.org/2000/svg" xmlns:xlink="http://www.w3.org/1999/xlink" version="1.1" x="0px" y="0px" viewBox="0 0 100 125" enable-background="new 0 0 100 100" xml:space="preserve"><path fill="#000000" d="M93.49,4.718H21.017c-0.834,0-1.51,0.676-1.51,1.51v13.107H6.51c-0.834,0-1.51,0.676-1.51,1.51v72.473  c0,0.834,0.676,1.51,1.51,1.51h72.473c0.834,0,1.51-0.676,1.51-1.51V80.211H93.49c0.834,0,1.51-0.676,1.51-1.51V6.228  C95,5.394,94.324,4.718,93.49,4.718z M68.328,76.954c-0.074,0.074-0.139,0.154-0.194,0.238H55.689l21.784-21.461v12.078  L68.328,76.954z M77.473,72.078v5.113H72.36L77.473,72.078z M45.153,7.738h11.895L45.451,19.335H33.622L44.933,8.024  C45.021,7.937,45.091,7.839,45.153,7.738z M91.98,37.2L80.493,48.517V36.861L91.98,25.373V37.2z M91.98,21.103L80.493,32.59V20.9  L91.98,9.276V21.103z M22.527,46.516c0.024-0.021,0.051-0.037,0.074-0.06l24.101-24.101H58.53L22.527,58.358V46.516z M22.527,62.629  l40.274-40.274h12.009L22.527,75.259V62.629z M77.794,19.335H65.82L77.132,8.024c0.087-0.087,0.158-0.185,0.219-0.286h11.903  L77.794,19.335z M61.55,19.335H49.721L61.025,8.032c0.09-0.09,0.161-0.19,0.223-0.294h11.899L61.55,19.335z M42.431,22.355  L22.527,42.259V30.431l8.076-8.076H42.431z M22.527,26.16v-3.805h3.805L22.527,26.16z M77.473,23.956V35.61L36.101,76.982  c-0.065,0.065-0.12,0.136-0.171,0.209H24.862L77.473,23.956z M77.473,39.88v11.612l-26.086,25.7H40.162L77.473,39.88z   M80.493,52.756L91.98,41.439v11.863L80.493,64.789V52.756z M26.458,7.738l-3.931,3.931V7.738H26.458z M22.527,15.94l7.614-7.614  c0.171-0.171,0.286-0.373,0.358-0.588h10.451L29.352,19.335h-6.825V15.94z M77.473,91.809H8.02V22.355h11.487v7.45  c0,0,0,0.001,0,0.001v48.896c0,0.834,0.676,1.51,1.51,1.51h56.456V91.809z M80.493,69.059L91.98,57.571V69.4l-7.791,7.791h-3.696  V69.059z M88.459,77.192l3.521-3.521v3.521H88.459z"/></svg>
