<svg xmlns="http://www.w3.org/2000/svg" xmlns:xlink="http://www.w3.org/1999/xlink" version="1.1" x="0px" y="0px" viewBox="0 0 64 80" style="enable-background:new 0 0 64 64;" xml:space="preserve"><g><path d="M58,15H42.611C42.997,13.109,43,11.274,43,10V9.095l-0.9-0.09c-0.117-0.013-1.801-0.163-3.828,0.307   c-1.671-6.057-5.647-8.118-5.825-8.206L32,0.882l-0.447,0.224c-0.178,0.089-4.153,2.149-5.825,8.206   c-2.027-0.47-3.711-0.32-3.828-0.307L21,9.095V10c0,0.286-0.005,0.593-0.011,0.916c-0.02,1.172-0.042,2.611,0.171,4.084H6   c-2.757,0-5,2.243-5,5v32c0,2.757,2.243,5,5,5h13v4h-4v2h34v-2h-4v-4h13c2.757,0,5-2.243,5-5V20C63,17.243,60.757,15,58,15z M33,19   c0-2.641,0.753-4.664,2.239-6.015c1.836-1.668,4.403-1.973,5.751-2.008c-0.099,4.79-1.112,9.559-7.991,9.981V19z M32,3.171   c0.975,0.67,3.261,2.622,4.374,6.76c-0.852,0.368-1.701,0.869-2.467,1.563c-0.805,0.729-1.435,1.601-1.907,2.597   c-0.472-0.996-1.101-1.868-1.907-2.597c-0.766-0.694-1.615-1.194-2.467-1.563C28.74,5.791,31.028,3.839,32,3.171z M22.988,10.978   c1.344,0.032,3.927,0.331,5.772,2.008C30.247,14.336,31,16.359,31,19v1.973c-2.743-0.146-4.78-0.882-6.063-2.191   C22.899,16.704,22.947,13.399,22.988,10.978z M6,17h15.624c0.376,1.142,0.962,2.241,1.885,3.182   c1.66,1.693,4.183,2.621,7.492,2.784v4.39C29.349,25.312,26.826,24,24,24h-5v1c0,4.963,4.038,9,9,9h3v4v1v4H11v2h42v-2H33v-4h3   c4.962,0,9-4.037,9-9v-1h-5c-2.826,0-5.349,1.312-7,3.356v-9.353v-0.029c5.425-0.292,7.905-2.977,9.04-5.974H58   c1.654,0,3,1.346,3,3v27H3V20C3,18.346,4.346,17,6,17z M30.929,32H28c-3.521,0-6.442-2.612-6.929-6H24   C27.521,26,30.442,28.612,30.929,32z M33.071,37c0.487-3.388,3.408-6,6.929-6h2.929c-0.487,3.388-3.408,6-6.929,6H33.071z M43,61   H21v-4h22V61z M58,55H6c-1.654,0-3-1.346-3-3v-3h58v3C61,53.654,59.654,55,58,55z"/><rect x="7" y="51" width="2" height="2"/><rect x="11" y="51" width="2" height="2"/><rect x="15" y="51" width="2" height="2"/><rect x="7" y="43" width="2" height="2"/><rect x="55" y="43" width="2" height="2"/><path d="M10,29h3v-1c0-2.757-2.243-5-5-5H5v1C5,26.757,7.243,29,10,29z M8,25c1.304,0,2.416,0.836,2.829,2H10   c-1.304,0-2.416-0.836-2.829-2H8z"/><path d="M53,20v-1h-3c-2.757,0-5,2.243-5,5v1h3C50.757,25,53,22.757,53,20z M48,23h-0.829c0.413-1.164,1.525-2,2.829-2h0.829   C50.416,22.164,49.304,23,48,23z"/><path d="M24,36v-1h-3c-2.757,0-5,2.243-5,5v1h3C21.757,41,24,38.757,24,36z M21,37h0.829c-0.413,1.164-1.525,2-2.829,2h-0.829   C18.584,37.836,19.696,37,21,37z"/><path d="M59,40v-1c0-2.757-2.243-5-5-5h-3v1c0,2.757,2.243,5,5,5H59z M53.171,36H54c1.304,0,2.416,0.836,2.829,2H56   C54.696,38,53.584,37.164,53.171,36z"/></g></svg>
