<svg xmlns="http://www.w3.org/2000/svg" xmlns:xlink="http://www.w3.org/1999/xlink" version="1.1" x="0px" y="0px" viewBox="0 0 10 12.5" enable-background="new 0 0 10 10" xml:space="preserve"><g><path d="M9.172,4.375C8.556,3.273,6.76,3.101,5.17,3.991C4.994,4.089,4.827,4.2,4.665,4.317L2.39,2.509   C0.826,1.266,0.697,1.427,0.655,1.481C0.613,1.534,0.484,1.695,2.047,2.939l2.189,1.738C3.27,5.599,2.934,6.763,3.404,7.604   C3.756,8.23,4.49,8.557,5.351,8.557c0.649,0,1.371-0.186,2.056-0.568c0.046-0.025,0.444-0.256,0.455-0.577   c0.006-0.17-0.094-0.323-0.308-0.462C7.469,6.91,7.219,6.764,7.195,6.611C7.192,6.587,7.184,6.518,7.297,6.418   C7.302,6.414,7.807,6,8.392,6.379c0.013,0.005,0.301,0.116,0.562-0.03c0.191-0.107,0.314-0.317,0.363-0.624   C9.414,5.144,9.369,4.728,9.172,4.375z M0.96,1.723C1.219,1.872,1.684,2.19,2.271,2.657l2.652,2.11   c-0.013,0.01-0.027,0.018-0.042,0.031c-0.008,0.007-0.016,0.016-0.02,0.025C4.859,4.828,4.844,4.859,4.827,4.903L2.167,2.79   C1.579,2.323,1.163,1.941,0.96,1.723z M5.021,4.93C5.155,4.818,5.232,4.8,5.268,4.8c0.104,0,0.127,0.174,0.127,0.178   c0.02,0.136,0.122,0.367,0.581,0.367c0.048,0,0.094-0.004,0.137-0.008C5.935,5.496,5.702,5.533,5.521,5.533l0,0   c-0.219,0-0.386-0.052-0.4-0.058C4.849,5.327,4.986,5.004,5.021,4.93z M9.132,5.693c-0.043,0.246-0.133,0.411-0.27,0.488   C8.79,6.222,8.715,6.235,8.648,6.235c-0.095,0-0.172-0.029-0.168-0.026c-0.687-0.443-1.3,0.058-1.307,0.064   c-0.16,0.14-0.179,0.275-0.165,0.364c0.04,0.281,0.423,0.465,0.453,0.479c0.143,0.093,0.213,0.189,0.209,0.288   c-0.006,0.182-0.26,0.363-0.356,0.417c-1.499,0.84-3.178,0.7-3.743-0.312C3.14,6.741,3.47,5.659,4.386,4.797l0.387,0.307   C4.762,5.182,4.762,5.266,4.785,5.353c0.038,0.123,0.119,0.221,0.243,0.29c0.044,0.023,0.25,0.081,0.492,0.081l0,0   c0.288,0,0.679-0.081,0.902-0.47C6.441,5.22,6.439,5.18,6.416,5.148c-0.022-0.03-0.061-0.044-0.098-0.035   c-0.002,0-0.165,0.041-0.342,0.041c-0.241,0-0.373-0.069-0.393-0.202C5.568,4.835,5.485,4.61,5.268,4.61   c-0.056,0-0.115,0.015-0.177,0.045l-0.27-0.214c0.141-0.104,0.288-0.199,0.442-0.285C6.762,3.317,8.44,3.458,9.006,4.467   C9.181,4.78,9.219,5.158,9.132,5.693z"/><path d="M5.469,6.808c-0.629,0-1.104,0.242-1.104,0.563s0.474,0.563,1.104,0.563c0.63,0,1.104-0.241,1.104-0.563   S6.099,6.808,5.469,6.808z M5.469,7.743c-0.538,0-0.913-0.196-0.913-0.372c0-0.177,0.375-0.374,0.913-0.374   c0.539,0,0.914,0.197,0.914,0.374C6.383,7.547,6.008,7.743,5.469,7.743z"/><path d="M5.028,5.989c0-0.244-0.198-0.441-0.44-0.441c-0.243,0-0.441,0.197-0.441,0.441c0,0.243,0.198,0.44,0.441,0.44   C4.83,6.43,5.028,6.232,5.028,5.989z M4.338,5.989c0-0.138,0.112-0.252,0.25-0.252c0.139,0,0.25,0.114,0.25,0.252   s-0.112,0.25-0.25,0.25C4.45,6.239,4.338,6.127,4.338,5.989z"/><path d="M6.568,4.189c-0.242,0-0.44,0.198-0.44,0.44c0,0.243,0.198,0.44,0.44,0.44c0.243,0,0.44-0.197,0.44-0.44   C7.009,4.387,6.812,4.189,6.568,4.189z M6.568,4.879c-0.138,0-0.25-0.112-0.25-0.25c0-0.139,0.112-0.25,0.25-0.25   c0.139,0,0.25,0.112,0.25,0.25C6.818,4.767,6.707,4.879,6.568,4.879z"/><path d="M7.915,4.189c-0.244,0-0.441,0.198-0.441,0.44c0,0.243,0.197,0.44,0.441,0.44c0.242,0,0.44-0.197,0.44-0.44   C8.355,4.387,8.157,4.189,7.915,4.189z M7.915,4.879c-0.138,0-0.252-0.112-0.252-0.25c0-0.139,0.114-0.25,0.252-0.25   s0.249,0.112,0.249,0.25C8.164,4.767,8.053,4.879,7.915,4.879z"/></g></svg>
